<?xml version="1.0" encoding="UTF-8" standalone="no"?>
<!-- Created with Inkscape (http://www.inkscape.org/) -->

<svg
   width="55.564796"
   height="52.146114"
   viewBox="0 0 14.701519 13.796992"
   version="1.1"
   id="svg2519"
   inkscape:version="1.4.2 (ebf0e940, 2025-05-08)"
   sodipodi:docname="Plextor.svg"
   xmlns:inkscape="http://www.inkscape.org/namespaces/inkscape"
   xmlns:sodipodi="http://sodipodi.sourceforge.net/DTD/sodipodi-0.dtd"
   xmlns="http://www.w3.org/2000/svg"
   xmlns:svg="http://www.w3.org/2000/svg"
   xmlns:rdf="http://www.w3.org/1999/02/22-rdf-syntax-ns#"
   xmlns:cc="http://creativecommons.org/ns#"
   xmlns:dc="http://purl.org/dc/elements/1.1/">
  <defs
     id="defs2513">
    <clipPath
       id="clipPath28"
       clipPathUnits="userSpaceOnUse">
      <path
         inkscape:connector-curvature="0"
         id="path26"
         d="m 38.081,71.151 h 149.94 v 50.738 H 38.081 Z" />
    </clipPath>
  </defs>
  <sodipodi:namedview
     id="base"
     pagecolor="#ffffff"
     bordercolor="#666666"
     borderopacity="1.0"
     inkscape:pageopacity="0.0"
     inkscape:pageshadow="2"
     inkscape:zoom="1.5037501"
     inkscape:cx="158.27098"
     inkscape:cy="-11.30507"
     inkscape:document-units="mm"
     inkscape:current-layer="g2785"
     showgrid="false"
     fit-margin-top="0"
     fit-margin-left="0"
     fit-margin-right="0"
     fit-margin-bottom="0"
     units="px"
     inkscape:window-width="1920"
     inkscape:window-height="1021"
     inkscape:window-x="0"
     inkscape:window-y="31"
     inkscape:window-maximized="1"
     inkscape:showpageshadow="2"
     inkscape:pagecheckerboard="0"
     inkscape:deskcolor="#d1d1d1" />
  <metadata
     id="metadata2516">
    <rdf:RDF>
      <cc:Work
         rdf:about="">
        <dc:format>image/svg+xml</dc:format>
        <dc:type
           rdf:resource="http://purl.org/dc/dcmitype/StillImage" />
      </cc:Work>
    </rdf:RDF>
  </metadata>
  <g
     inkscape:label="Layer 1"
     inkscape:groupmode="layer"
     id="layer1"
     transform="translate(-53.815512,-182.84059)">
    <g
       id="g2785"
       transform="translate(0.13229073,-0.13229272)">
      <g
         transform="matrix(0.35277777,0,0,-0.35277777,56.466849,192.83267)"
         id="g30">
        <path
           inkscape:connector-curvature="0"
           id="path32"
           style="fill:#008f8c;fill-opacity:1;fill-rule:evenodd;stroke:none"
           d="M 0,0 V -11.16 H -2.739 L -2.776,9.67 c 0,10.098 8.186,18.279 18.278,18.279 10.099,0 18.281,-8.181 18.281,-18.279 0,-10.096 -8.182,-18.277 -18.281,-18.277 C 8.894,-8.607 3.207,-5.262 0,0 m -0.092,9.795 c 0,-8.367 6.779,-15.152 15.148,-15.152 8.373,0 15.151,6.785 15.151,15.152 0,8.365 -6.778,15.146 -15.151,15.146 -8.369,0 -15.148,-6.781 -15.148,-15.146" />
      </g>
      <g
         transform="matrix(0.35277777,0,0,-0.35277777,57.182388,187.15308)"
         id="g34">
        <path
           inkscape:connector-curvature="0"
           id="path36"
           style="fill:#0052a4;fill-opacity:1;fill-rule:nonzero;stroke:none"
           d="m 0,0 c 2.379,4.699 7.253,7.916 12.876,7.916 7.973,0 14.43,-6.459 14.43,-14.432 0,-5.623 -3.218,-10.5 -7.914,-12.879 3.271,2.53 5.379,6.491 5.379,10.948 0,7.636 -6.191,13.828 -13.826,13.828 C 6.486,5.381 2.524,3.271 0,0" />
      </g>
      <g
         transform="matrix(0.35277777,0,0,-0.35277777,64.502879,190.6216)"
         id="g38">
        <path
           inkscape:connector-curvature="0"
           id="path40"
           style="fill:#0052a4;fill-opacity:1;fill-rule:nonzero;stroke:none"
           d="m 0,0 c 0,-4.959 -3.231,-9.162 -7.692,-10.633 3.106,1.791 5.194,5.139 5.194,8.977 0,5.715 -4.637,10.347 -10.35,10.347 -3.84,0 -7.188,-2.087 -8.979,-5.193 1.471,4.467 5.677,7.693 10.637,7.693 C -5.014,11.191 0,6.182 0,0" />
      </g>
      <g
         transform="matrix(0.35277777,0,0,-0.35277777,53.683221,185.84188)"
         id="g42">
        <path
           inkscape:connector-curvature="0"
           id="path44"
           style="fill:#0052a4;fill-opacity:1;fill-rule:nonzero;stroke:none"
           d="M 0,0 H 7.54 C 5.533,-2.938 4.359,-6.486 4.359,-10.313 L 4.393,-30.977 H 0 Z" />
      </g>
      <g
         transform="matrix(0.35277777,0,0,-0.35277777,56.612229,196.7697)"
         id="g46">
        <path
           inkscape:connector-curvature="0"
           id="path48"
           style="fill:#0052a4;fill-opacity:1;fill-rule:nonzero;stroke:none"
           d="m 0,0 v 8.797 c 3.311,-4.08 8.575,-6.623 14.609,-6.623 1.295,0 2.561,0.125 3.778,0.355 1.595,0.231 3.128,0.649 4.562,1.231 V 0 Z" />
      </g>
      <g
         transform="matrix(0.35277777,0,0,-0.35277777,62.933301,194.15558)"
         id="g50">
        <path
           inkscape:connector-curvature="0"
           id="path52"
           style="fill:#0052a4;fill-opacity:1;fill-rule:nonzero;stroke:none"
           d="m 0,0 c 3.215,2.168 5.334,5.844 5.334,10.018 0,6.671 -5.404,12.078 -12.075,12.078 -4.177,0 -7.851,-2.117 -10.021,-5.336 1.98,4.429 6.428,7.515 11.592,7.515 7.008,0 12.689,-5.679 12.689,-12.689 C 7.519,6.42 4.428,1.975 0,0" />
      </g>
      <g
         transform="matrix(0.35277777,0,0,-0.35277777,79.407035,195.38618)"
         id="g58" />
    </g>
  </g>
</svg>
