<?xml version="1.0" encoding="UTF-8" standalone="no"?>
<!-- Created with Inkscape (http://www.inkscape.org/) -->

<svg
    xmlns:inkscape="http://www.inkscape.org/namespaces/inkscape"
    xmlns:sodipodi="http://sodipodi.sourceforge.net/DTD/sodipodi-0.dtd"
    width="216.41978mm"
    height="218.49785mm"
    viewBox="0 0 216.41978 218.49785"
    version="1.1"
    id="svg1"
    xml:space="preserve"
    inkscape:version="1.4.2 (ebf0e940, 2025-05-08)"
    sodipodi:docname="dump-disc.svg"
    xmlns="http://www.w3.org/2000/svg"
><sodipodi:namedview
     id="namedview1"
     pagecolor="#ffffff"
     bordercolor="#000000"
     borderopacity="0.25"
     inkscape:showpageshadow="2"
     inkscape:pageopacity="0.0"
     inkscape:pagecheckerboard="0"
     inkscape:deskcolor="#d1d1d1"
     inkscape:document-units="mm"
     inkscape:zoom="0.89887065"
     inkscape:cx="437.77155"
     inkscape:cy="427.20273"
     inkscape:window-width="1440"
     inkscape:window-height="1021"
     inkscape:window-x="0"
     inkscape:window-y="31"
     inkscape:window-maximized="0"
     inkscape:current-layer="layer1" />
  <defs
      id="defs1"/>
  <g
      inkscape:label="Capa 1"
      inkscape:groupmode="layer"
      id="layer1"
      transform="translate(10.828124,-35.550121)"><path
       style="fill:#000000"
       d="M 78.012298,253.70954 C 61.909283,251.39526 47.81941,241.13723 40.357814,226.29547 c -8.555517,-17.01766 -7.26837,-37.46707 3.354501,-53.29431 19.330865,-28.80145 61.813595,-28.67595 81.057475,0.23945 12.33533,18.53479 11.71898,42.9189 -1.53293,60.64622 -6.67338,8.9271 -16.08576,15.49834 -26.322382,18.37695 -5.805188,1.63245 -13.505206,2.2214 -18.90218,1.44576 z m 14.158677,-5.15735 c 18.070005,-3.8839 31.665335,-17.43841 35.787095,-35.67965 3.26862,-14.46559 -0.78198,-30.45547 -10.54353,-41.62097 -5.0449,-5.77047 -12.24956,-10.5747 -19.366622,-12.91407 -5.08584,-1.67172 -7.351417,-1.9963 -13.890623,-1.99007 -5.184104,0.005 -6.312001,0.0833 -8.731249,0.60651 -4.143516,0.89614 -7.126572,1.95889 -11.244791,4.0061 -10.534273,5.23667 -18.467466,14.50481 -22.403765,26.17371 -5.309119,15.73854 -2.172845,32.67127 8.525001,46.02645 l 0.67332,0.84057 9.116263,-9.7174 c 5.013945,-5.34458 9.337827,-9.99677 9.608627,-10.33822 0.434408,-0.54773 0.447027,-0.67379 0.107205,-1.07094 -0.730296,-0.85349 -2.00897,-3.36509 -2.586438,-5.08034 -0.884507,-2.62724 -1.030932,-7.40323 -0.313903,-10.23869 2.65151,-10.48531 13.39281,-16.32072 23.254847,-12.63363 6.975546,2.60792 11.466278,9.35838 11.519498,17.31607 0.0334,4.99849 -1.49264,8.99849 -4.759452,12.47507 -2.96291,3.15316 -6.237766,4.9047 -10.45883,5.59385 l -2.059292,0.33621 -4.194043,9.0563 c -3.914006,8.45161 -4.156333,9.0648 -3.62925,9.18355 1.89871,0.42777 4.403254,0.65739 7.179377,0.65821 9.549008,0.003 18.01588,-3.57482 25.01504,-10.56996 6.62562,-6.62182 10.35707,-15.00962 10.98049,-24.68271 l 0.1833,-2.84427 h 2.21736 2.21735 l -2.2e-4,0.99219 c -9.5e-4,4.26866 -1.21861,10.77759 -2.78777,14.90185 -2.29224,6.02477 -5.04389,10.23754 -9.75951,14.94178 -6.29589,6.28069 -12.808262,9.74297 -21.451457,11.4046 -3.180191,0.61138 -10.488529,0.60911 -13.493749,-0.004 -1.164167,-0.23759 -2.303509,-0.43199 -2.531872,-0.43202 -0.356038,-4e-5 -0.87414,0.95265 -2.301976,4.23288 -0.08488,0.19501 4.169238,1.24351 6.421348,1.58265 2.773305,0.41762 10.768132,0.11923 13.702221,-0.51142 z m -47.610169,-48.6525 c 0.385653,-5.88479 1.82484,-11.24636 4.39942,-16.38965 4.418732,-8.82741 11.377243,-15.36289 20.071021,-18.85085 2.395945,-0.96125 6.391847,-2.14386 6.617478,-1.95846 0.04971,0.0408 0.304469,1.03465 0.566123,2.20845 l 0.475736,2.13418 -1.09529,0.27803 c -6.299389,1.59906 -11.570383,4.60701 -16.089305,9.18153 -6.285901,6.36324 -9.854565,14.35258 -10.446653,23.38741 l -0.171166,2.61187 h -2.248958 -2.248959 z m 23.574087,45.00199 c 0.986613,-2.04035 11.291743,-24.50626 11.340942,-24.72405 0.02819,-0.12478 -0.73217,-0.56128 -1.689685,-0.96998 -0.957515,-0.40871 -2.30961,-1.13436 -3.004655,-1.61256 l -1.263719,-0.86946 -0.595785,0.62735 c -1.358741,1.43073 -16.249054,17.38007 -17.417945,18.65674 l -1.268876,1.38588 1.798043,1.49124 c 2.546806,2.11224 5.746794,4.20076 8.744148,5.707 1.418392,0.71277 2.646138,1.29687 2.728327,1.29799 0.08219,0.001 0.365331,-0.44444 0.629205,-0.99015 z m 18.903244,-29.45091 c 3.258353,-0.75117 7.124661,-3.84578 8.574601,-6.86315 2.6846,-5.58672 1.66555,-12.03777 -2.56666,-16.24803 -4.906628,-4.88119 -11.690713,-5.15681 -17.27465,-0.70182 -3.5149,2.80426 -5.378631,7.97408 -4.580506,12.7059 1.071447,6.35226 6.704421,11.34132 12.834082,11.367 1.018645,0.004 2.374555,-0.11268 3.013133,-0.2599 z m -4.799608,-7.49009 c -3.884499,-1.44546 -5.290536,-6.01905 -2.91886,-9.49453 1.315275,-1.92741 3.47099,-2.76223 5.89596,-2.28324 1.23331,0.2436 1.661397,0.49858 2.8074,1.67218 1.697094,1.73795 2.202468,3.38886 1.710433,5.5875 -0.786216,3.51319 -4.377533,5.6781 -7.494933,4.51809 z m -73.2228964,7.77069 v -2.38125 H 19.83757 30.659507 l 0.189354,1.63148 c 0.104144,0.89732 0.286117,1.96888 0.404384,2.38125 l 0.215031,0.74977 H 20.241954 9.0156326 Z M 137.33854,215.04196 c 0,-0.0881 0.16617,-0.83228 0.36925,-1.65365 0.20309,-0.82137 0.44349,-1.82082 0.53421,-2.221 l 0.16496,-0.72761 h 31.21579 31.21579 V 143.50012 76.560537 l -15.94114,-0.0015 c -9.6832,-8.96e-4 -16.31059,-0.104105 -16.88223,-0.262909 -1.12214,-0.311731 -2.18068,-1.380294 -2.59479,-2.619368 -0.21135,-0.632382 -0.30059,-5.718252 -0.30059,-17.131771 V 40.312621 H 125.69688 86.273962 v 52.255207 52.255212 h -2.38125 -2.38125 V 91.548622 38.274209 l 0.600587,-0.899024 c 0.330322,-0.494462 1.014931,-1.107197 1.521354,-1.361632 0.865013,-0.434598 3.459046,-0.462635 42.839647,-0.463021 l 41.91889,-4.11e-4 18.27382,18.416377 c 10.0506,10.129007 18.41728,18.731273 18.59262,19.116145 0.24598,0.539935 0.32152,16.520563 0.33073,69.964997 0.0117,68.16478 0.004,69.2813 -0.50404,70.27661 -1.02834,2.01572 1.54254,1.87795 -35.04433,1.87795 -17.98621,0 -32.7022,-0.0721 -32.7022,-0.16024 z M 190.87045,64.852724 c -3.8069,-3.819922 -10.08211,-10.16 -13.9449,-14.089062 l -7.02326,-7.14375 -0.01,14.089062 -0.01,14.089063 h 13.9549 13.9549 z M -10.828116,202.23762 v -2.38125 H 9.4850486 29.798215 l -0.0064,2.38056 -0.0064,2.38056 -20.3067704,6.9e-4 -20.3067686,6.9e-4 z M 143.15938,190.99283 v -5.68854 h 3.175 3.175 v -4.49792 -4.49792 h 3.175 3.175 v -3.43958 -3.43958 h 2.51354 2.51354 v 3.43958 3.43958 h -2.38125 -2.38125 v 4.595 4.595 l -3.24115,-0.01 -3.24114,-0.01 -0.0714,5.60143 -0.0714,5.60143 h -3.16973 -3.16974 z M 9.0156326,188.47929 v -2.38125 H 20.421398 31.827164 l -0.145767,0.59531 c -0.08017,0.32742 -0.292253,1.39898 -0.471292,2.38125 l -0.325525,1.78594 H 19.950106 9.0156326 Z M 135.22188,171.54595 v -5.29166 h 3.04271 3.0427 v -4.36563 -4.36562 h 3.96875 3.96875 v -6.08542 -6.08541 h 4.23334 4.23333 v -5.55625 -5.55625 h 3.43958 3.43959 v -1.5875 -1.5875 h 1.85208 1.85208 v -4.63021 -4.63021 h 3.43959 3.43958 v 4.74944 4.74943 l -3.37344,-0.0101 -3.37344,-0.0101 -0.0788,1.61071 -0.0788,1.61071 h -1.83946 -1.83945 v 5.42396 5.42396 h -3.43959 -3.43958 v 6.08541 6.08542 h -4.23333 -4.23334 v 4.49792 4.49791 h -3.96875 -3.96875 v 5.15938 5.15937 h -3.0427 -3.04271 z M 124.894,164.5345 c -0.005,-0.0728 -0.0134,-1.59081 -0.0186,-3.37344 l -0.01,-3.24115 3.19364,-0.0743 3.19364,-0.0743 v 3.44773 3.44773 h -3.175 c -1.74625,0 -3.17911,-0.0595 -3.18413,-0.13229 z m 7.41746,-14.94896 v -1.85208 h 1.71979 1.71979 v -3.57188 -3.57187 h 3.43959 3.43958 v 3.43958 3.43958 h -3.30729 -3.30729 v 1.98438 1.98437 h -1.85209 -1.85208 z m -26.45833,-1.98438 v -2.24895 h 2.24896 2.24896 v -7.9375 -7.9375 h 6.87916 6.87917 v 7.9375 7.9375 h -6.74688 -6.74687 v 2.24895 2.24896 h -2.38125 -2.38125 z m 13.75833,-10.9802 v -2.64584 h -2.38125 -2.38125 v 2.64584 2.64583 h 2.38125 2.38125 z m 16.73264,-14.09127 c -3.09108,-3.09359 -5.62014,-5.74171 -5.62014,-5.88472 0,-0.34578 10.89897,-11.24485 11.24474,-11.24485 0.14809,0 2.79829,2.5311 5.88934,5.62465 l 5.62009,5.62466 -5.75695,5.75248 -5.75694,5.75248 z m 8.27063,-3.37138 2.37036,-2.3814 -2.50307,-2.51352 -2.50307,-2.51352 -2.45262,2.44242 -2.45262,2.44243 2.44229,2.45249 c 1.34327,1.34887 2.50667,2.4525 2.58533,2.4525 0.0787,0 1.2097,-1.07163 2.5134,-2.3814 z m -30.55952,0.7939 v -2.38125 h 2.38125 2.38125 v -4.64014 -4.64014 l 2.4474,0.0761 2.44739,0.0761 0.0724,4.56406 0.0724,4.56407 h -2.51979 -2.51979 v 2.38125 2.38125 h -2.38125 -2.38125 z m 43.65625,-21.298965 v -4.630209 h 4.49792 4.49791 v 4.630209 4.630215 h -4.49791 -4.49792 z m 5.02708,0 c 0,-0.48507 -0.14111,-0.661459 -0.52916,-0.661459 -0.51624,0 -0.74755,0.751759 -0.35278,1.146531 0.40166,0.40165 0.88194,0.1375 0.88194,-0.485072 z m -41.6585,-6.204237 -1.82452,-1.838611 1.76772,-1.733264 c 0.97225,-0.953295 1.92643,-1.733263 2.12041,-1.733263 0.19398,0 1.10403,0.782447 2.02234,1.738771 l 1.66965,1.738771 -1.81905,1.833104 c -1.00049,1.008207 -1.88498,1.833104 -1.96554,1.833104 -0.0806,0 -0.96752,-0.827376 -1.97101,-1.838612 z m 15.2649,-6.96531 c -3.67362,-3.677991 -6.67931,-6.807857 -6.67931,-6.955259 0,-0.147402 0.57377,-0.833151 1.27506,-1.523888 1.11898,-1.102156 1.42643,-1.262873 2.5117,-1.312971 l 1.23664,-0.05708 0.002,-1.326018 0.002,-1.326018 4.23457,-4.228365 4.23457,-4.228366 6.94281,6.942807 6.9428,6.942806 -6.87599,6.879806 c -3.78179,3.783893 -6.93701,6.879806 -7.0116,6.879806 -0.0746,0 -3.1413,-3.009265 -6.81493,-6.687255 z m 10.77732,-3.409734 3.566,-3.670761 -3.76444,-3.764444 -3.76444,-3.764443 -3.71309,3.713091 -3.71309,3.71309 3.77923,3.757756 c 2.07858,2.066766 3.83877,3.741717 3.91153,3.722114 0.0728,-0.0196 1.737,-1.687485 3.6983,-3.706403 z"
       id="path1" /></g></svg>
