<?xml version="1.0" encoding="UTF-8" standalone="no"?>
<!-- Created with Inkscape (http://www.inkscape.org/) -->

<svg
    xmlns:inkscape="http://www.inkscape.org/namespaces/inkscape"
    xmlns:sodipodi="http://sodipodi.sourceforge.net/DTD/sodipodi-0.dtd"
    width="238.10635mm"
    height="226.69604mm"
    viewBox="0 0 238.10635 226.69605"
    version="1.1"
    id="svg1"
    xml:space="preserve"
    sodipodi:docname="scan-disc.svg"
    inkscape:version="1.4.2 (ebf0e940, 2025-05-08)"
    xmlns="http://www.w3.org/2000/svg"
><sodipodi:namedview
     id="namedview1"
     pagecolor="#ffffff"
     bordercolor="#000000"
     borderopacity="0.25"
     inkscape:showpageshadow="2"
     inkscape:pageopacity="0.0"
     inkscape:pagecheckerboard="0"
     inkscape:deskcolor="#d1d1d1"
     inkscape:document-units="mm"
     inkscape:zoom="0.89887065"
     inkscape:cx="468.92175"
     inkscape:cy="443.89034"
     inkscape:window-width="1632"
     inkscape:window-height="1021"
     inkscape:window-x="0"
     inkscape:window-y="31"
     inkscape:window-maximized="0"
     inkscape:current-layer="layer1" />
  <defs
      id="defs1"/>
  <g
      inkscape:label="Capa 1"
      inkscape:groupmode="layer"
      id="layer1"
      transform="translate(19.093845,-31.073797)"><path
       style="fill:#000000"
       d="M 119.00296,257.3665 C 95.950554,254.81109 74.609907,243.5597 59.717265,226.1094 54.559761,220.06615 50.410862,213.64842 46.784409,206.10419 41.774213,195.68132 39.308715,186.62214 38.223894,174.64962 l -0.315718,-3.48439 -1.035232,-0.35807 c -0.569378,-0.19693 -1.057243,-0.32783 -1.084146,-0.29087 -0.0269,0.037 -1.075544,1.58454 -2.330316,3.43906 l -2.281402,3.37187 0.817509,1.21131 c 1.55198,2.2996 1.913218,4.72577 1.06104,7.12621 -0.261691,0.73714 -4.434795,7.29784 -9.424531,14.81667 -4.925187,7.42156 -9.71566,14.66535 -10.645496,16.09731 -2.782597,4.28525 -5.5703681,6.62374 -9.3865861,7.87384 -1.658529,0.5433 -2.455029,0.63509 -5.5106288,0.63509 -3.0714098,0 -3.8480475,-0.0904 -5.5429501,-0.64548 -3.758723,-1.2309 -7.445978,-4.29876 -9.429373,-7.8454 -2.695338,-4.81971 -2.945418,-11.06086 -0.638652,-15.93852 0.712072,-1.50568 17.71250209,-27.80342 20.2297779,-31.29318 2.117211,-2.93514 3.95359,-3.96368 7.4717461,-4.18486 l 2.433258,-0.15297 1.88164,-2.74066 c 1.034901,-1.50736 1.844935,-2.76218 1.800075,-2.7885 -0.821367,-0.48179 -5.27909,-4.52221 -7.2181251,-6.54241 C -7.1286604,136.07295 -13.999128,113.52849 -10.091175,90.062022 -8.5510912,80.814132 -4.551613,70.778891 0.75787699,62.840259 7.6909089,52.474142 17.340066,43.959959 28.118594,38.697823 c 11.233539,-5.484275 22.361048,-7.931397 34.528123,-7.593301 7.514515,0.208812 12.344729,0.988516 19.446874,3.139156 8.720227,2.640621 18.162519,7.816306 25.544659,14.002008 7.04866,5.906278 13.38283,13.927284 17.59195,22.276845 l 1.78721,3.545251 4.39329,0.15009 c 7.26389,0.24815 15.7328,1.72797 23.311,4.07326 33.17333,10.26641 57.34158,37.784078 63.09111,71.834758 1.69602,10.04445 1.58718,22.67733 -0.28453,33.02531 -4.11822,22.76796 -17.55397,44.07795 -36.48054,57.86054 -10.12968,7.37657 -24.2111,13.32128 -36.57721,15.44169 -7.64386,1.31069 -18.40139,1.69637 -25.46757,0.91307 z m 20.05888,-6.34146 c 11.67056,-1.62478 22.64878,-5.46511 32.80435,-11.4754 22.73755,-13.4566 38.19379,-38.1174 40.82024,-65.12969 0.38211,-3.92991 0.37544,-12.81146 -0.0124,-16.53646 -0.67969,-6.52747 -2.29008,-14.10293 -4.19197,-19.71942 -1.01701,-3.00335 -3.4416,-8.98787 -3.64138,-8.98787 -0.0563,0 -1.97985,1.08414 -4.27467,2.4092 -2.29482,1.32506 -13.45928,7.70848 -24.8099,14.18537 -11.35063,6.47689 -21.1281,12.05624 -21.72772,12.39854 l -1.09022,0.62237 0.52528,2.05945 c 0.64265,2.51964 0.77921,8.8439 0.24444,11.31986 -3.26508,15.11708 -15.77953,25.03744 -30.40407,24.1017 -7.32484,-0.46867 -13.64375,-3.39163 -18.72977,-8.66388 -3.62553,-3.75828 -6.047776,-7.7981 -7.518056,-12.5386 -0.6516,-2.10089 -1.33247,-6.25656 -1.33477,-8.14679 -8.6e-4,-0.70335 -0.0909,-1.23335 -0.2,-1.17778 -11.645896,5.92982 -19.16539,8.15476 -30.211778,8.93935 -5.955045,0.42297 -15.150477,-0.31965 -19.945333,-1.61077 -0.564867,-0.1521 -1.093462,-0.21012 -1.174656,-0.12893 -0.239698,0.2397 0.682976,7.43051 1.394424,10.86737 5.295175,25.57986 22.104572,47.39752 45.505573,59.0637 8.31399,4.14479 19.409876,7.41172 28.045826,8.25744 1.60073,0.15676 3.32713,0.33247 3.83646,0.39047 2.10859,0.24013 13.266,-0.10606 16.09013,-0.49923 z M 0.23973279,218.75346 c 3.61317511,-0.76585 5.53447111,-2.23401 8.06509011,-6.16297 0.821687,-1.27573 5.4313821,-8.25818 10.2437691,-15.51657 9.42998,-14.22299 9.436554,-14.23556 8.153161,-15.60167 -0.328148,-0.3493 -1.810476,-1.38714 -3.294062,-2.30631 -1.483587,-0.91917 -4.834676,-3.02979 -7.446864,-4.69027 -5.110426,-3.24853 -5.87484,-3.51397 -7.2567161,-2.51995 -0.381617,0.27451 -2.317852,2.93556 -4.302744,5.91344 -8.2987324,12.45037 -15.9604409,24.29225 -16.5653379,25.60325 -1.253461,2.71666 -1.048833,6.87829 0.486151,9.88711 1.322914,2.59312 4.4902767,4.88211 7.5732174,5.473 1.8161333,0.34809 2.3773124,0.33787 4.34433539,-0.0791 z M 131.17379,189.22234 c 4.06852,-1.18761 7.66545,-3.41851 10.75383,-6.66976 5.2935,-5.57268 7.39809,-13.82472 5.37606,-21.07942 -1.89149,-6.78632 -6.11396,-11.93012 -12.16114,-14.81465 -3.37498,-1.60989 -5.78921,-2.13648 -9.79498,-2.13648 -5.50325,0 -5.55584,0.0159 -7.32927,2.21866 -4.09213,5.08275 -9.65717,10.48868 -13.74972,13.35662 -1.50536,1.0549 -1.6613,1.25745 -1.93217,2.50956 -0.35256,1.62969 -0.36583,6.08039 -0.0242,8.10891 1.49218,8.85988 8.25818,16.41237 16.55845,18.48322 3.2158,0.80232 3.20381,0.8011 6.87917,0.69855 2.53251,-0.0707 3.9629,-0.24873 5.42396,-0.67521 z m -8.17245,-9.02035 c -2.08662,-0.24903 -4.99695,-1.59838 -6.68438,-3.09914 -5.48317,-4.8766 -5.88442,-13.64218 -0.87229,-19.05588 2.5962,-2.80421 5.9799,-4.12362 10.14606,-3.95629 2.2789,0.0915 2.76452,0.20582 4.62124,1.08757 5.14366,2.44272 8.29442,7.85624 7.73731,13.29399 -0.77857,7.59926 -7.21799,12.65232 -14.94794,11.72975 z m 4.09531,-6.34483 c 1.7379,-0.43761 3.63583,-2.24483 4.35279,-4.14476 1.39421,-3.69463 -0.6937,-8.09729 -4.35857,-9.19068 -1.64596,-0.49106 -2.6233,-0.49068 -4.28114,0.002 -3.81146,1.13188 -5.77324,5.71108 -4.09659,9.56225 1.42283,3.26814 4.63816,4.71464 8.38351,3.77155 z m -98.89159,-2.92309 1.883104,-2.82442 -1.910827,-1.06249 c -1.050954,-0.58438 -2.982015,-1.70839 -4.291246,-2.49781 l -2.380419,-1.4353 -1.956796,2.66283 c -1.852319,2.52066 -1.930059,2.68223 -1.456039,3.02615 0.703081,0.51011 8.160033,5.06087 8.197972,5.00298 0.01713,-0.0261 0.878543,-1.31851 1.914251,-2.87194 z m 41.328644,-2.96928 c 5.999164,-0.82359 12.56357,-2.68827 18.248428,-5.18365 7.286762,-3.19853 14.252288,-8.12475 20.241248,-14.31519 12.35732,-12.77301 18.75215,-28.55894 18.69318,-46.14496 C 126.65807,84.877982 119.48283,68.034429 106.93182,55.877217 100.02895,49.190928 91.141954,43.813133 82.043109,40.8163 68.069531,36.213907 52.495851,36.268062 38.778119,40.966747 28.918697,44.34386 21.908854,48.719524 14.471578,56.139305 c -4.328348,4.318168 -5.9986331,6.337136 -9.2031801,11.1244 -5.54926631,8.290037 -9.1854014,18.595877 -10.1133435,28.664097 -0.3882662,4.212708 -0.176243,12.760798 0.4112344,16.579648 2.14117,13.91851 8.7026151,26.85272 18.6567922,36.77708 10.471023,10.43967 24.170964,17.13968 38.36947,18.76473 1.382447,0.15823 2.93026,0.33628 3.439583,0.39568 1.825933,0.21294 10.769808,-0.10512 13.50157,-0.48015 z M 54.9738,159.8546 C 44.481293,158.71257 34.719298,154.90341 26.502696,148.7451 14.358138,139.64281 6.3099899,126.30637 4.0247479,111.49731 3.4409689,107.71425 3.2574269,101.27689 3.6235519,97.426202 6.1671479,70.674131 25.594735,50.354671 52.592551,46.209162 c 4.114099,-0.631719 12.181083,-0.636529 16.508387,-0.0098 22.911356,3.318054 41.273482,19.556786 47.407882,41.92563 1.38982,5.06793 1.80634,8.38871 1.81379,14.460628 0.007,5.96685 -0.3607,8.89117 -1.83132,14.55208 -2.61032,10.04805 -7.8691,19.08642 -15.43992,26.53691 -8.341606,8.20905 -18.948104,13.59647 -30.864029,15.67697 -3.65354,0.6379 -11.569696,0.89966 -15.213541,0.50306 z m 9.525,-6.08129 c 22.180095,-1.69177 40.8724,-17.35587 46.28433,-38.78615 2.96047,-11.72294 1.73334,-23.133178 -3.67198,-34.143378 C 99.440884,65.220101 86.35783,55.566136 68.732133,52.523978 65.480536,51.962759 55.742857,51.889325 52.857134,52.404261 c -11.306584,2.017576 -20.242292,6.39741 -27.61713,13.536528 -4.847893,4.69294 -8.20282,9.282653 -10.874437,14.876793 -6.7094521,14.04903 -6.5018471,30.967848 0.55187,44.974658 7.73312,15.35592 22.727216,25.72742 40.056363,27.70721 2.353631,0.26889 3.708734,0.39756 5.291667,0.50246 0.363802,0.0241 2.268802,-0.0788 4.233333,-0.2286 z m 7.728851,-5.3166 c -1.301223,-0.37526 -2.82609,-2.03963 -3.188954,-3.48069 -0.16861,-0.66961 -0.303949,-2.8614 -0.300753,-4.87063 0.0047,-2.97578 0.09592,-3.84939 0.491799,-4.71148 1.001836,-2.18169 2.371596,-2.78253 6.306913,-2.76651 4.089784,0.0166 5.463829,0.60543 6.4562,2.76651 0.659989,1.43725 0.724837,8.86587 0.09064,10.38371 -0.967109,2.31462 -2.353679,2.97312 -6.207617,2.94807 -1.527969,-0.01 -3.169673,-0.13097 -3.648232,-0.26898 z m 3.64647,-5.25665 c 0.586927,-0.31411 0.937681,-2.60741 0.58692,-3.8374 -0.185272,-0.64969 -0.366966,-0.79375 -1.001069,-0.79375 h -0.774714 l -0.07765,1.91412 c -0.06827,1.68273 0.207603,2.98067 0.633524,2.98067 0.07721,0 0.362054,-0.11864 0.632993,-0.26364 z m -31.016458,4.51932 -0.86407,-0.7714 -0.08477,-4.12339 c -0.0805,-3.91547 -0.111391,-4.12339 -0.612706,-4.12339 -1.731997,0 -2.685924,-2.55997 -1.679295,-4.50658 0.589916,-1.14077 1.656759,-1.57884 3.845,-1.57884 2.303931,0 3.491711,0.50053 4.067576,1.71408 0.572675,1.20682 0.611115,11.06827 0.04839,12.41505 -0.793669,1.89952 -3.141105,2.38415 -4.720128,0.97447 z m 12.842871,0.13347 -0.742359,-0.63793 -0.08449,-4.26715 -0.08449,-4.26714 -0.783486,-0.1567 c -1.188805,-0.23776 -1.825651,-1.23249 -1.825651,-2.85162 0,-1.18292 0.110601,-1.47599 0.809838,-2.1459 0.732451,-0.70173 1.011416,-0.78503 2.919302,-0.87167 2.356303,-0.107 3.411823,0.19913 4.217327,1.22316 0.48291,0.61393 0.520199,1.09688 0.520199,6.73752 v 6.0762 l -0.899584,0.89958 c -0.759107,0.75911 -1.087335,0.89958 -2.101912,0.89958 -0.889009,0 -1.395783,-0.16624 -1.944687,-0.63793 z M 38.311466,125.59407 c -2.826018,-0.79262 -5.161798,-2.72691 -6.537406,-5.4137 l -0.74505,-1.45521 v -6.21771 -6.21771 l 0.765705,-1.55945 c 1.01029,-2.05758 2.465832,-3.46846 4.616588,-4.47492 1.611516,-0.754118 1.978989,-0.821418 4.405643,-0.806818 3.595582,0.0216 5.233226,0.649378 7.433134,2.849288 2.540285,2.54029 2.754971,3.35469 2.754971,10.45086 0,6.33919 -0.118028,7.01566 -1.599853,9.16941 -2.159007,3.13801 -7.134098,4.78653 -11.093732,3.67596 z m 4.888377,-6.43488 c 1.459967,-0.83144 1.71961,-1.79923 1.713569,-6.38715 -0.0062,-4.68194 -0.356161,-5.97653 -1.820509,-6.73377 -2.110228,-1.09124 -4.320966,-0.62965 -5.510182,1.1505 -0.563403,0.84336 -0.600586,1.16753 -0.600586,5.23606 0,3.75651 0.06789,4.46843 0.507163,5.31868 1.049513,2.0314 3.54364,2.64971 5.710545,1.41568 z m 17.4303,6.45541 c -1.70288,-0.7279 -1.687593,-0.63064 -1.687593,-10.73811 v -9.15488 l -0.966833,-0.2451 c -2.549338,-0.64628 -2.799777,-4.65685 -0.354055,-5.669898 0.46763,-0.1937 1.646525,-0.28212 3.002221,-0.22519 1.77005,0.0743 2.355076,0.20331 2.825511,0.622908 1.271839,1.13441 1.313989,1.54124 1.313989,12.68252 0,9.14086 -0.0544,10.56463 -0.434045,11.36077 -0.660654,1.3854 -2.267217,1.97909 -3.699195,1.36698 z m 17.633404,-0.0375 c -2.790089,-0.74976 -5.272057,-2.80976 -6.446137,-5.3502 -0.536705,-1.16131 -0.571735,-1.63428 -0.571735,-7.7194 v -6.48229 l 0.906761,-1.67241 c 1.840192,-3.39401 4.505893,-4.889208 8.75053,-4.908188 4.067478,-0.0182 6.881613,1.246408 8.720107,3.918568 1.421111,2.06551 1.642421,3.04939 1.793961,7.97545 0.20469,6.65327 -0.29666,8.85127 -2.585205,11.33405 -2.540302,2.75591 -6.782479,3.92176 -10.568282,2.90442 z m 4.684473,-6.18086 c 1.97346,-0.89585 2.186301,-1.5536 2.186301,-6.75645 0,-5.266 -0.203162,-5.87005 -2.283854,-6.79044 -1.679642,-0.74299 -3.239025,-0.49935 -4.430603,0.69223 -1.104986,1.10498 -1.221065,1.7138 -1.221065,6.40437 0,4.9758 0.316361,5.78496 2.57718,6.59171 1.341047,0.47854 1.857007,0.45554 3.172041,-0.14142 z M 38.804064,92.470822 c -0.380387,-0.055 -1.035231,-0.45842 -1.455209,-0.89661 l -0.763595,-0.79671 -0.07579,-9.20437 -0.07579,-9.20436 -1.049762,-0.314516 c -1.341805,-0.402015 -1.973665,-1.351311 -1.973665,-2.965199 0,-2.14186 1.456901,-3.148567 4.555564,-3.147857 2.21227,5.07e-4 3.466771,0.565815 4.109128,1.851672 0.417712,0.836165 0.46265,1.973731 0.463021,11.72095 3.47e-4,9.11144 -0.06191,10.91542 -0.399202,11.56768 -0.57162,1.10539 -1.789029,1.61259 -3.334707,1.38932 z m 18.418695,-0.24735 c -1.853519,-0.56515 -4.037984,-2.13016 -5.076206,-3.63672 -1.525885,-2.21421 -1.718521,-3.38672 -1.623032,-9.8789 0.08298,-5.64183 0.09882,-5.78437 0.801463,-7.210814 1.243404,-2.524263 3.390236,-4.350918 6.037499,-5.137071 1.764704,-0.52406 4.798488,-0.540056 6.479445,-0.03416 1.831756,0.551277 3.911109,2.081512 4.985548,3.668959 1.508265,2.228409 1.75674,3.548326 1.75674,9.331936 0,6.65356 -0.486691,8.34191 -3.126951,10.84746 -2.276045,2.15992 -6.860887,3.07797 -10.234506,2.04932 z m 5.1541,-6.10862 c 0.506423,-0.25443 1.198097,-0.87765 1.537055,-1.38493 0.59763,-0.8944 0.613809,-1.06799 0.534441,-5.73407 -0.0802,-4.71479 -0.09517,-4.82599 -0.743305,-5.51896 -1.062036,-1.135503 -2.046679,-1.524737 -3.503108,-1.384793 -1.516985,0.145763 -2.527261,0.801977 -3.186227,2.069583 -0.408803,0.78638 -0.46167,1.51274 -0.396875,5.45285 0.06765,4.11342 0.126853,4.61655 0.622727,5.29166 0.70271,0.95672 2.1087,1.67127 3.288483,1.67127 0.509323,0 1.340387,-0.20817 1.846809,-0.46261 z m 18.199552,5.51249 -0.86407,-0.77178 -0.07577,-9.23807 -0.07577,-9.238079 -0.95721,-0.24275 c -1.331773,-0.33774 -2.066251,-1.408574 -2.066251,-3.012499 0,-2.179685 1.436949,-3.183679 4.555564,-3.182964 2.21227,5.07e-4 3.466771,0.565815 4.109129,1.851672 0.417711,0.836165 0.462649,1.973731 0.46302,11.72095 3.47e-4,9.11144 -0.06191,10.91542 -0.399202,11.56768 -0.518892,1.00342 -1.144011,1.31762 -2.621526,1.31762 -0.956119,0 -1.381653,-0.15882 -2.067915,-0.77178 z m 73.730619,59.196908 c 3.83158,-2.1055 13.65479,-7.68528 21.58134,-12.25864 2.83766,-1.63723 9.38609,-5.3834 14.55208,-8.32481 5.16599,-2.94141 9.8922,-5.6356 10.50269,-5.98709 l 1.10999,-0.63907 -1.20633,-2.04787 c -3.44181,-5.84286 -8.89113,-12.82286 -12.79855,-16.39359 l -1.20158,-1.09804 -1.57654,1.79121 c -0.86711,0.98517 -5.68857,6.48408 -10.71437,12.2198 -5.0258,5.73573 -12.88392,14.69487 -17.4625,19.9092 -4.57857,5.21434 -8.54827,9.75774 -8.82154,10.09645 -0.49544,0.61406 -0.49315,0.62157 0.79375,2.60685 0.70983,1.09506 1.40166,1.99876 1.5374,2.00824 0.13573,0.009 1.8026,-0.83771 3.70416,-1.88264 z m -8.18428,-9.66876 c 1.4552,-1.6855 4.4913,-5.16716 6.74687,-7.73702 2.25557,-2.56987 9.33979,-10.66277 15.74271,-17.98424 6.40291,-7.32147 12.09039,-13.82443 12.63884,-14.45102 l 0.99717,-1.139248 -2.1878,-1.69627 c -10.82648,-8.39414 -24.67027,-14.34468 -38.85972,-16.70326 -3.83157,-0.63688 -11.53831,-1.38056 -11.78195,-1.13692 -0.0719,0.072 0.17051,1.12535 0.53879,2.3409 1.72054,5.6788 2.5138,10.79064 2.72435,17.555918 0.31634,10.16441 -1.31882,19.82086 -4.8611,28.70729 -1.28163,3.2152 -3.26187,7.33824 -4.08143,8.49794 l -0.48956,0.69273 3.36662,0.13971 c 5.54827,0.23024 11.00516,2.04327 14.85764,4.93641 0.79026,0.59347 1.56417,1.07062 1.71979,1.06033 0.15562,-0.0103 1.47357,-1.39775 2.92878,-3.08325 z"
       id="path1" /></g></svg>
