<?xml version="1.0" encoding="UTF-8" standalone="no"?>

<!-- ####################################################################

This file was generates automatically via the
IconPacks.Browser (MIT-License).

Visit https://github.com/MahApps/MahApps.Metro.IconPacks and
https://github.com/MahApps/MahApps.Metro.IconPacks/blob/develop/LICENSE
for more information.

~~~~~~~~~~~~~~~~~~~~~~~~~~~~~~~~~~~~~~~~~~~~~~~~~~~~~~~~~~~~~~~~~~~~~~~~~~

Icon-Name: 			Toolbox
Iconpack:			PhosphorIcons
Iconpack-Homepage: 	https://phosphoricons.com/
Iconpack-License:	https://github.com/phosphor-icons/core?tab=MIT-1-ov-file#readme

#####################################################################-->


<svg xmlns="http://www.w3.org/2000/svg"
     width="48"
     height="48">
  <path d="M224,64H176V56a24,24,0,0,0-24-24H104A24,24,0,0,0,80,56v8H32A16,16,0,0,0,16,80V192a16,16,0,0,0,16,16H224a16,16,0,0,0,16-16V80A16,16,0,0,0,224,64ZM96,56a8,8,0,0,1,8-8h48a8,8,0,0,1,8,8v8H96ZM224,80v32H192v-8a8,8,0,0,0-16,0v8H80v-8a8,8,0,0,0-16,0v8H32V80Zm0,112H32V128H64v8a8,8,0,0,0,16,0v-8h96v8a8,8,0,0,0,16,0v-8h32v64Z"
        style="fill:#FFFFFF;
                 stroke:none
                 stroke-width:0;
                 stroke-linecap:flat;
                 stroke-linejoin:miter;"
        transform="matrix(0.21428571428571427,0,0,0.21428571428571427,-3.4285714285714284,-1.7142857142857142)"/>
</svg>