<?xml version="1.0" encoding="UTF-8" standalone="no"?>

<!-- ####################################################################

This file was generates automatically via the
IconPacks.Browser (MIT-License).

Visit https://github.com/MahApps/MahApps.Metro.IconPacks and
https://github.com/MahApps/MahApps.Metro.IconPacks/blob/develop/LICENSE
for more information.

~~~~~~~~~~~~~~~~~~~~~~~~~~~~~~~~~~~~~~~~~~~~~~~~~~~~~~~~~~~~~~~~~~~~~~~~~~

Icon-Name: 			Disc
Iconpack:			PhosphorIcons
Iconpack-Homepage: 	https://phosphoricons.com/
Iconpack-License:	https://github.com/phosphor-icons/core?tab=MIT-1-ov-file#readme

#####################################################################-->


<svg xmlns="http://www.w3.org/2000/svg"
     width="48"
     height="48">
  <path d="M128,24A104,104,0,1,0,232,128,104.11,104.11,0,0,0,128,24Zm39.2,96a39.77,39.77,0,0,0-5.84-14l34.23-34.24a87.54,87.54,0,0,1,20,48.28ZM152,128a24,24,0,1,1-24-24A24,24,0,0,1,152,128Zm-24,88A88,88,0,1,1,184.28,60.4L150,94.64A40,40,0,1,0,167.2,136h48.43A88.11,88.11,0,0,1,128,216Z"
        style="fill:#000000;
                 stroke:none
                 stroke-width:0;
                 stroke-linecap:flat;
                 stroke-linejoin:miter;"
        transform="matrix(0.2307658598054861,0,0,0.2307658598054861,-5.537679474872777,-5.538380415256193)"/>
</svg>