<?xml version="1.0" encoding="UTF-8" standalone="no"?>

<!-- ####################################################################

This file was generates automatically via the
IconPacks.Browser (MIT-License).

Visit https://github.com/MahApps/MahApps.Metro.IconPacks and
https://github.com/MahApps/MahApps.Metro.IconPacks/blob/develop/LICENSE
for more information.

~~~~~~~~~~~~~~~~~~~~~~~~~~~~~~~~~~~~~~~~~~~~~~~~~~~~~~~~~~~~~~~~~~~~~~~~~~

Icon-Name: 			VinylRecord
Iconpack:			PhosphorIcons
Iconpack-Homepage: 	https://phosphoricons.com/
Iconpack-License:	https://github.com/phosphor-icons/core?tab=MIT-1-ov-file#readme

#####################################################################-->


<svg xmlns="http://www.w3.org/2000/svg"
     width="48"
     height="48">
  <path d="M128,24A104,104,0,1,0,232,128,104.11,104.11,0,0,0,128,24Zm0,192a88,88,0,1,1,88-88A88.1,88.1,0,0,1,128,216Zm0-144a56.06,56.06,0,0,0-56,56,8,8,0,0,1-16,0,72.08,72.08,0,0,1,72-72,8,8,0,0,1,0,16Zm72,56a72.08,72.08,0,0,1-72,72,8,8,0,0,1,0-16,56.06,56.06,0,0,0,56-56,8,8,0,0,1,16,0Zm-40,0a32,32,0,1,0-32,32A32,32,0,0,0,160,128Zm-48,0a16,16,0,1,1,16,16A16,16,0,0,1,112,128Z"
        style="fill:#000000;
                 stroke:none
                 stroke-width:0;
                 stroke-linecap:flat;
                 stroke-linejoin:miter;"
        transform="matrix(0.2307658598054861,0,0,0.2307658598054861,-5.537679474872777,-5.538380415256193)"/>
</svg>